# xmcd CD database file
#
# Track frame offsets:
#	187
#	22977
#	41970
#	63817
#	83742
#	104582
#	131470
#	151432
#	169700
#	198502
#
# Disc length: 2925 seconds
#
# Revision: 4
# Processed by: cddbd v1.5.2PL0 Copyright (c) Steve Scherf et al.
# Submitted via: CDex 1.70beta2
#
DISCID=7e0b6b0a
DTITLE=BUCK-TICK - CATALOGUE 1987-1995
DYEAR=1995
DGENRE=Rock
TTITLE0=JUST ONE MORE KISS
TTITLE1=悪の華
TTITLE2=スピード
TTITLE3=M・A・D
TTITLE4=JUPITER
TTITLE5=ドレス
TTITLE6=die
TTITLE7=唄
TTITLE8=鼓動
TTITLE9=見えない物を見ようとする誤解 全て誤解だ
EXTD=YEAR: 1995
EXTT0=
EXTT1=
EXTT2=
EXTT3=
EXTT4=
EXTT5=
EXTT6=
EXTT7=
EXTT8=
EXTT9=
PLAYORDER=
